<svg viewBox="0 0 3000 71" xmlns="http://www.w3.org/2000/svg" fill-rule="evenodd" clip-rule="evenodd" stroke-linejoin="round" stroke-miterlimit="2" id="edge">
  <path d="M2999.997 25.938v42.648c-9.666 1.51-19.408 3.392-29.214.114-18.448-5.504-36.414-3.692-54.786-4.45-24.348-3.302-48.948-1.55-73.346.038-13.634-.036-21.022 1.6-33.222 2.246-5.176 2.016-8.188 3.786-13.6.674-15.172.948-32.756 5.698-47.54.08-6.814.452-12.252-6.236-19.074-2.764-6.26 2.688-12.882-.076-19.238-.252-10.008 4.742-12.396-.126-21.484-2.252-6.664-5.942-13.652 1.36-20.596-.712-21.272 2.166-42.57-1.236-63.846.068-13.194 1.954-27.436-8.044-40.416-.138-14.87-3.35-27.368 3.724-41.666 5.656-6.612 5.23-12.566-5.242-19.114 2.488a61.403 61.403 0 01-7.42 1.54h-32.548c-4.694-.206-9.442-.284-14.27 0h-37.324a23.895 23.895 0 01-1.464-.738 8.162 8.162 0 01-1.024.738h-6.556c-4.008-2.074-7.834-6.604-12.094-5.264-12.034-8.874-24.716-6.576-37.852-2.818-14.602-1.034-28.816.706-43.066 1.428-14.246 1.144-28.528-1.858-43.258 1.528-12.364-.652-21.308-2.08-32.068 1.382-15.59-.358-31.034 3.218-46.146.324-12.748 3.588-27.658-10.08-40.71-.324-16.934 3.878-33.866-3.986-50.8 0-16.932-8.664-33.866 11.678-50.8 0-17.654 2.396-35.332-4.426-52.984.03-14.838-8.4-24.314-5.136-38.356-4.168-11.256-1.976-23.166-1.668-34.566-.428-6.532-.732-11.354 2.932-17.342-2.768-7.16-8.3-12.57-5.046-19.842-1.646-7.952-7.352-13.166-2.492-21.754-2.734-15.584 2.778-36.482 8.028-51.532-.106-7.08-1.8-12.022-1.378-19.488-3.986-8.864-2.468-15.298.514-23.468 1.356-11.686 1.33-22.826 6.942-35.492 4.428-7.366 5.812-13.838-2.284-21.008-1.26-7.46-6.462-18.308-5.044-25.81-.034-4.368-.29-7.612 2.08-12.704 2.322-8.884-.618-18.666 3.602-27.686.284-9.83-4.476-19.106 2.76-28.232-.972-11.172-4.05-23.706-7.348-36.622-5.246-12.918 4.072-26.222-5.294-38.94-.696-15.256.866-30.506 3.062-45.948 3.862-15.44.11-31.072.042-47.086 1.602-13.682 2.724-27.354-.75-40.578-1.37-9.93-1.688-15.642-3.15-25.612-4.134-13.556 2.614-26.092-.512-38.188 1.952-8.06 3.626-15.82 3.436-24.644 4.864-6.272.014-13.512.166-19.912.138-17.806-1.806-40.654 1.82-56.162 1.456-11.446 4.17-22.642 1.206-35.604 1.486-10.104-1.172-15.048 4.198-23.356-1.088-2.162.226-3.856-3.466-6.286-1.56-5.052-3.802-13.212-1.25-18.396-.354-8.146-.71-5.508.87-12.064 2.248-10.616 4.216-22.418-.882-34.792 2.166-14.128 2.646-27.65-1.696-41.052.142-13.404.522-26.692 4.828-40.354 2.404-16.854 3.696-32.398 4.426-50.018 3.296-12.62.896-28.58-.884-40.94-.144-3.64-.598-5.86 2.418-9.48 1.56-1.58.308-3.2.582-4.82.842h-48.16c-6.74-.456-13.46-.394-20.18 0h-11.78c-12.54-2.162-26.28-1.952-38.64 0h-147.88c-2.2-.604-4.38-1.624-6.58-3.34-4.98-2.122-9.28.8-14.76-3.052-8.12.974-17.34 5.356-25.64-.278-13.94-3.874-25.74 1.196-39.32 1.508-20.92 3.058-41.18-.48-61.74-1.132-10.72-5.37-13.04-3.902-22.46-3.328-6.66-5.378-6.44-.352-13.12-1.258-10 .654-20.3-7.848-30.18-4.858-19.2-3.372-44.3-9.43-64.96-1.062-10.46-.476-30.08-.238-38.8-.252-2.78-1.526-4.12-3.038-6.7-3.012-2.92-5.548-7.4-3.654-10.88-2.212-12.94-5.668-25.7-.926-39.52-1.778-10.08.888-16.98 4.566-26.54-1.128-13.14-1.714-27.52-.054-40.94-.334-4.26-1.814-8.92-.956-13 .26-4.6-.816-5.94 1.498-11.22 2.76-6.88 2.388-16.54-.498-23.84-.106-14.6-1.762-29.2-3.508-43.8 0-18.2 1.5-31.56 2.088-48.26 4.744-16.6.854-31.7 3.688-49.72 2.508-7.12.538-17.32-1.06-25.72-.9V19.038c10.14-.128 20.22-2.004 29.3-1.98 15.04-2.256 28.04-8.262 44.3-12.53 3.4 1.548 10.78-2.372 13.98.112 10.6-.6 24.74-6.124 34.7.64 8.94-.016 16.78-1.358 27.04 1.686 7.48-5.692 3.22-3.424 13-3.848 7.8 2.1 17.46-6.428 25.56-1.636 13.04-.86 17.24-3.302 28.06 5.558 16.4.788 46.58-.622 63.46.486 15.44.984 33.12-7.796 48.74-.064 11.26-.86 23.46 4.434 33.64 2.98 11.56 0 23.86 1.916 36.14 4.02 19.34-.944 42.32-4.548 62.04.328 12.92.922 26.12-.39 39.04-.034 13.6-4.29 22.14 5.298 35.82 4.496 12.52.648 27.78 2.444 39.92-.184 4.04 2.832 6.94 2.68 10.96 1.6 5.52-.276 13.12-.828 18.8-.08 3.7-2.738 8.6-.788 12.14-.208 4.76-.052 6.48-1.086 11.06-3.924 5.98.262 19.16 3.208 25.16-.238 10.14-.406 20.28 1.976 29.5 1.406 13.5 3.638 23.12 5.868 39.74 5.936 12.24-5.394 24.84-1.47 37.1-.066 10.78 1.41 22.18.376 31.86-.85 3.26-.302 5.9-3.114 9.36-2.084 6.92 1.556 14.78.068 22.14-1.452 11.72-1.124 23.58 2.678 35.32.034 7.96 1.634 23.78 5.4 31.04-.252 5.06-7.584 6.92-4.996 11.84-5.222 11.44-2.98 32.18 1.094 45.48-1.764 7.04 1.698 5.84-.758 13.78.85 10.5-2.468 18.46 11.37 29.4 6.564 12.48-1.064 25.038 4.228 38.018 1.276 14.934.636 29.882 2.464 44.814 0 3.792.72 8.862 2.11 12.582-.178 11.488 2.482 14.188 4.282 24.132 5.8 8.682 5.168 18.816 1.748 27.752.106 12.428-6.026 23.572 2.052 36.348 1.526 12.788-3.576 25.582-.142 38.37 0 8.36-1.236 18.03-.656 26.322-.076 7.078-2.438 13.25 5.534 20.372 1.58 18.396 1.64 38.206-.642 54.952-3.246 10.086-.266 18.084-4.46 28.53-5.432 5.468 1.504 8.866-5.828 13.946-2.332 7.356-2.21 14.888 1.11 22.904-.65 11.784 5.872 24.394-2.09 36.076.098 17.068 2.374 29.264-2.354 44.446-8.22 9.312-.244 22.778 2.392 32.854-.69 12.942 3.158 23.344.112 35.662 2.732 3.956-1.396 7.902 7.462 11.838.552 3.86.338 7.742 4.366 11.648 2.346 21.424-2.822 43.938 10.19 66.644 4.666 14.432-1.456 29.04 1.798 43.554-.166 14.512-3.27 28.93-1.8 42.98 1.262 12.142 3.892 24.156 6.956 35.568-1.452 11.762-7.286 17.602-3.706 30.57-2.578 22.96-.41 45.926-1.276 68.886 0 13.212 1.786 26.424.698 39.634.004 12.428-.904 21.73-2.018 33.732 1.48 24.266 2.282 47.168-2.806 68.806 2.844 9.22 2.468 19.224 9.426 28.646 4.296 15.21-.112 29.718 4.146 46.652 5.692 19.294 2.632 33.588-4.558 52.232-2.468 24.538 2.368 48.546-6.436 73.77-1.694 15.354-2.5 36.854 2.442 51.396-.218 11.582-.448 16.832-2.47 30.112-5.614 11.65-3.714 24.524 6.132 36.066-.12 12.394 1.138 23.52 1.136 35.91 3.202 8.482 6.052 17.664-2.946 26.206-.152 14.36.404 28.718-4.236 43.076 0 14.36-.074 28.718-.422 43.076 0 15.508-7.712 31.288 3.14 46.18 1.78 13.308 5.814 21.99 5.246 36.992 5.54 17.076 4.086 28.286-1.68 44.244-3.398 13.964.272 27.954-.448 42.06-1.342 15.486-.204 29.188-.96 43.31-4.03 15.576-.812 27.044-7.898 44.936-2.902 22.856 3.15 45.72 4.416 68.574-.004 13.238 2.948 22.524-.818 35.736-1.442 17.816-3.67 34.384 2.78 51.95 1.128 17.734.956 36.654 4.568 54.58 1.736 13.266.596 22.936 1.096 35.082 4.998 14.204 3.93 32.354-2.696 47.826.64.004-.088.028-.17.028-.26" fill-rule="nonzero" fill="#2B2B2B"/>
</svg>